<mxfile host="Electron" modified="2024-05-08T08:56:24.382Z" agent="Mozilla/5.0 (Windows NT 10.0; Win64; x64) AppleWebKit/537.36 (KHTML, like Gecko) draw.io/23.1.5 Chrome/120.0.6099.109 Electron/28.1.0 Safari/537.36" etag="8U93nuJYO4X0zisVUo8-" version="23.1.5" type="device">
  <diagram name="Strona-1" id="N-g6R4FaqpWk_qaJ9Zau">
    <mxGraphModel dx="855" dy="725" grid="1" gridSize="10" guides="1" tooltips="1" connect="1" arrows="1" fold="1" page="1" pageScale="1" pageWidth="600" pageHeight="250" math="0" shadow="0">
      <root>
        <mxCell id="0" />
        <mxCell id="1" parent="0" />
        <mxCell id="QXbhTZh7FSRHMu3yAL8Z-59" value="" style="rounded=0;whiteSpace=wrap;html=1;fillColor=#1ba1e2;fontColor=#ffffff;strokeColor=#006EAF;" parent="1" vertex="1">
          <mxGeometry x="160" y="87.5" width="40" height="65" as="geometry" />
        </mxCell>
        <mxCell id="QXbhTZh7FSRHMu3yAL8Z-53" value="" style="endArrow=classic;html=1;rounded=0;" parent="1" edge="1">
          <mxGeometry width="50" height="50" relative="1" as="geometry">
            <mxPoint x="110" y="124.5" as="sourcePoint" />
            <mxPoint x="220" y="124.87" as="targetPoint" />
          </mxGeometry>
        </mxCell>
        <mxCell id="QXbhTZh7FSRHMu3yAL8Z-1" value="" style="rounded=1;whiteSpace=wrap;html=1;" parent="1" vertex="1">
          <mxGeometry x="50" y="20" width="60" height="60" as="geometry" />
        </mxCell>
        <mxCell id="QXbhTZh7FSRHMu3yAL8Z-2" value="" style="rounded=0;whiteSpace=wrap;html=1;" parent="1" vertex="1">
          <mxGeometry x="70" y="80" width="20" height="10" as="geometry" />
        </mxCell>
        <mxCell id="QXbhTZh7FSRHMu3yAL8Z-3" value="" style="rounded=0;whiteSpace=wrap;html=1;" parent="1" vertex="1">
          <mxGeometry x="60" y="90" width="40" height="10" as="geometry" />
        </mxCell>
        <mxCell id="QXbhTZh7FSRHMu3yAL8Z-4" value="" style="endArrow=none;html=1;rounded=0;" parent="1" edge="1">
          <mxGeometry width="50" height="50" relative="1" as="geometry">
            <mxPoint x="65" y="30" as="sourcePoint" />
            <mxPoint x="95" y="30" as="targetPoint" />
          </mxGeometry>
        </mxCell>
        <mxCell id="QXbhTZh7FSRHMu3yAL8Z-5" value="" style="endArrow=none;html=1;rounded=0;" parent="1" edge="1">
          <mxGeometry width="50" height="50" relative="1" as="geometry">
            <mxPoint x="65" y="40" as="sourcePoint" />
            <mxPoint x="95" y="40" as="targetPoint" />
          </mxGeometry>
        </mxCell>
        <mxCell id="QXbhTZh7FSRHMu3yAL8Z-6" value="" style="endArrow=none;html=1;rounded=0;" parent="1" edge="1">
          <mxGeometry width="50" height="50" relative="1" as="geometry">
            <mxPoint x="65" y="49.93000000000001" as="sourcePoint" />
            <mxPoint x="95" y="49.93000000000001" as="targetPoint" />
          </mxGeometry>
        </mxCell>
        <mxCell id="QXbhTZh7FSRHMu3yAL8Z-7" value="" style="endArrow=none;html=1;rounded=0;" parent="1" edge="1">
          <mxGeometry width="50" height="50" relative="1" as="geometry">
            <mxPoint x="65" y="59.93000000000001" as="sourcePoint" />
            <mxPoint x="95" y="59.93000000000001" as="targetPoint" />
          </mxGeometry>
        </mxCell>
        <mxCell id="QXbhTZh7FSRHMu3yAL8Z-8" value="" style="endArrow=none;html=1;rounded=0;" parent="1" edge="1">
          <mxGeometry width="50" height="50" relative="1" as="geometry">
            <mxPoint x="20" y="70" as="sourcePoint" />
            <mxPoint x="40" y="80" as="targetPoint" />
          </mxGeometry>
        </mxCell>
        <mxCell id="QXbhTZh7FSRHMu3yAL8Z-9" value="" style="endArrow=none;html=1;rounded=0;" parent="1" edge="1">
          <mxGeometry width="50" height="50" relative="1" as="geometry">
            <mxPoint x="20" y="30" as="sourcePoint" />
            <mxPoint x="40" y="20" as="targetPoint" />
          </mxGeometry>
        </mxCell>
        <mxCell id="QXbhTZh7FSRHMu3yAL8Z-10" value="" style="endArrow=none;html=1;rounded=0;" parent="1" edge="1">
          <mxGeometry width="50" height="50" relative="1" as="geometry">
            <mxPoint x="20" y="60" as="sourcePoint" />
            <mxPoint x="40" y="70" as="targetPoint" />
          </mxGeometry>
        </mxCell>
        <mxCell id="QXbhTZh7FSRHMu3yAL8Z-11" value="" style="endArrow=none;html=1;rounded=0;" parent="1" edge="1">
          <mxGeometry width="50" height="50" relative="1" as="geometry">
            <mxPoint x="20" y="40" as="sourcePoint" />
            <mxPoint x="40" y="30" as="targetPoint" />
          </mxGeometry>
        </mxCell>
        <mxCell id="QXbhTZh7FSRHMu3yAL8Z-12" value="MEMS" style="endArrow=classic;html=1;rounded=0;exitX=1;exitY=0.5;exitDx=0;exitDy=0;" parent="1" source="QXbhTZh7FSRHMu3yAL8Z-1" edge="1">
          <mxGeometry y="10" width="50" height="50" relative="1" as="geometry">
            <mxPoint x="120" y="100" as="sourcePoint" />
            <mxPoint x="170" y="50" as="targetPoint" />
            <mxPoint as="offset" />
          </mxGeometry>
        </mxCell>
        <mxCell id="QXbhTZh7FSRHMu3yAL8Z-33" style="edgeStyle=orthogonalEdgeStyle;rounded=0;orthogonalLoop=1;jettySize=auto;html=1;exitX=1;exitY=0.5;exitDx=0;exitDy=0;" parent="1" source="QXbhTZh7FSRHMu3yAL8Z-14" edge="1">
          <mxGeometry relative="1" as="geometry">
            <mxPoint x="290" y="49.74137931034488" as="targetPoint" />
          </mxGeometry>
        </mxCell>
        <mxCell id="QXbhTZh7FSRHMu3yAL8Z-14" value="Filtr &lt;br&gt;(6 kHz)" style="rounded=0;whiteSpace=wrap;html=1;" parent="1" vertex="1">
          <mxGeometry x="170" y="30" width="80" height="40" as="geometry" />
        </mxCell>
        <mxCell id="QXbhTZh7FSRHMu3yAL8Z-15" style="edgeStyle=orthogonalEdgeStyle;rounded=0;orthogonalLoop=1;jettySize=auto;html=1;exitX=0;exitY=0.25;exitDx=0;exitDy=0;shape=flexArrow;" parent="1" source="QXbhTZh7FSRHMu3yAL8Z-18" edge="1">
          <mxGeometry relative="1" as="geometry">
            <mxPoint x="80.00000000000023" y="220" as="sourcePoint" />
            <mxPoint x="380" y="132.5" as="targetPoint" />
          </mxGeometry>
        </mxCell>
        <mxCell id="QXbhTZh7FSRHMu3yAL8Z-16" value="4 ptóbka" style="rounded=0;whiteSpace=wrap;html=1;" parent="1" vertex="1">
          <mxGeometry x="470.25" y="110" width="60" height="10" as="geometry" />
        </mxCell>
        <mxCell id="QXbhTZh7FSRHMu3yAL8Z-17" value="5 próbka" style="rounded=0;whiteSpace=wrap;html=1;" parent="1" vertex="1">
          <mxGeometry x="470.25" y="120" width="60" height="10" as="geometry" />
        </mxCell>
        <mxCell id="QXbhTZh7FSRHMu3yAL8Z-18" value="1 próbka" style="rounded=0;whiteSpace=wrap;html=1;fillColor=#1ba1e2;fontColor=#ffffff;strokeColor=#006EAF;" parent="1" vertex="1">
          <mxGeometry x="470.25" y="130" width="60" height="10" as="geometry" />
        </mxCell>
        <mxCell id="QXbhTZh7FSRHMu3yAL8Z-19" value="2 próbka" style="rounded=0;whiteSpace=wrap;html=1;" parent="1" vertex="1">
          <mxGeometry x="470.25" y="140" width="60" height="10" as="geometry" />
        </mxCell>
        <mxCell id="QXbhTZh7FSRHMu3yAL8Z-20" value="3 próbka" style="rounded=0;whiteSpace=wrap;html=1;" parent="1" vertex="1">
          <mxGeometry x="470.25" y="150" width="60" height="10" as="geometry" />
        </mxCell>
        <mxCell id="QXbhTZh7FSRHMu3yAL8Z-21" value="" style="endArrow=classic;html=1;rounded=0;exitX=0.5;exitY=1;exitDx=0;exitDy=0;entryX=0.5;entryY=0;entryDx=0;entryDy=0;curved=1;" parent="1" source="QXbhTZh7FSRHMu3yAL8Z-20" target="QXbhTZh7FSRHMu3yAL8Z-16" edge="1">
          <mxGeometry width="50" height="50" relative="1" as="geometry">
            <mxPoint x="533.5" y="180" as="sourcePoint" />
            <mxPoint x="583.5" y="130" as="targetPoint" />
            <Array as="points">
              <mxPoint x="453.5" y="170" />
              <mxPoint x="453.5" y="100" />
            </Array>
          </mxGeometry>
        </mxCell>
        <mxCell id="QXbhTZh7FSRHMu3yAL8Z-23" value="Wykrywanie progu" style="rounded=0;whiteSpace=wrap;html=1;" parent="1" vertex="1">
          <mxGeometry x="463.5" y="30" width="73.5" height="40" as="geometry" />
        </mxCell>
        <mxCell id="QXbhTZh7FSRHMu3yAL8Z-25" value="48 &lt;br&gt;kHz" style="text;html=1;align=center;verticalAlign=middle;whiteSpace=wrap;rounded=0;" parent="1" vertex="1">
          <mxGeometry x="120" y="50" width="30" height="30" as="geometry" />
        </mxCell>
        <mxCell id="QXbhTZh7FSRHMu3yAL8Z-28" value="Bufor cykliczny (1,5 s)" style="rounded=0;whiteSpace=wrap;html=1;" parent="1" vertex="1">
          <mxGeometry x="456.75" y="170" width="87" height="50" as="geometry" />
        </mxCell>
        <mxCell id="QXbhTZh7FSRHMu3yAL8Z-32" value="48 &lt;br&gt;kHz" style="text;html=1;align=center;verticalAlign=middle;whiteSpace=wrap;rounded=0;" parent="1" vertex="1">
          <mxGeometry x="260" y="60" width="30" height="30" as="geometry" />
        </mxCell>
        <mxCell id="QXbhTZh7FSRHMu3yAL8Z-35" value="Suma z 3 próbek dzielona na 4" style="rounded=0;whiteSpace=wrap;html=1;" parent="1" vertex="1">
          <mxGeometry x="290" y="30" width="100" height="40" as="geometry" />
        </mxCell>
        <mxCell id="QXbhTZh7FSRHMu3yAL8Z-36" style="edgeStyle=orthogonalEdgeStyle;rounded=0;orthogonalLoop=1;jettySize=auto;html=1;exitX=1;exitY=0.5;exitDx=0;exitDy=0;entryX=0;entryY=0.5;entryDx=0;entryDy=0;" parent="1" target="QXbhTZh7FSRHMu3yAL8Z-23" edge="1">
          <mxGeometry relative="1" as="geometry">
            <mxPoint x="430" y="50.00137931034487" as="targetPoint" />
            <mxPoint x="390" y="50.75999999999999" as="sourcePoint" />
          </mxGeometry>
        </mxCell>
        <mxCell id="QXbhTZh7FSRHMu3yAL8Z-37" value="16 kHz" style="text;html=1;align=center;verticalAlign=middle;whiteSpace=wrap;rounded=0;" parent="1" vertex="1">
          <mxGeometry x="410" y="57.5" width="30" height="30" as="geometry" />
        </mxCell>
        <mxCell id="QXbhTZh7FSRHMu3yAL8Z-41" value="" style="endArrow=classic;html=1;rounded=0;exitX=0.5;exitY=1;exitDx=0;exitDy=0;" parent="1" source="QXbhTZh7FSRHMu3yAL8Z-23" edge="1">
          <mxGeometry width="50" height="50" relative="1" as="geometry">
            <mxPoint x="570" y="134.5" as="sourcePoint" />
            <mxPoint x="530.25" y="134.66" as="targetPoint" />
            <Array as="points">
              <mxPoint x="500" y="82.5" />
              <mxPoint x="550" y="82.5" />
              <mxPoint x="550" y="134.5" />
            </Array>
          </mxGeometry>
        </mxCell>
        <mxCell id="QXbhTZh7FSRHMu3yAL8Z-42" value="4 ptóbka" style="rounded=0;whiteSpace=wrap;html=1;" parent="1" vertex="1">
          <mxGeometry x="316.5" y="140" width="60" height="10" as="geometry" />
        </mxCell>
        <mxCell id="QXbhTZh7FSRHMu3yAL8Z-43" value="5 próbka" style="rounded=0;whiteSpace=wrap;html=1;" parent="1" vertex="1">
          <mxGeometry x="316.5" y="150" width="60" height="10" as="geometry" />
        </mxCell>
        <mxCell id="QXbhTZh7FSRHMu3yAL8Z-44" value="1 próbka" style="rounded=0;whiteSpace=wrap;html=1;fillColor=#1ba1e2;fontColor=#ffffff;strokeColor=#006EAF;" parent="1" vertex="1">
          <mxGeometry x="316.5" y="110" width="60" height="10" as="geometry" />
        </mxCell>
        <mxCell id="QXbhTZh7FSRHMu3yAL8Z-45" value="2 próbka" style="rounded=0;whiteSpace=wrap;html=1;" parent="1" vertex="1">
          <mxGeometry x="316.5" y="120" width="60" height="10" as="geometry" />
        </mxCell>
        <mxCell id="QXbhTZh7FSRHMu3yAL8Z-46" value="3 próbka" style="rounded=0;whiteSpace=wrap;html=1;" parent="1" vertex="1">
          <mxGeometry x="316.5" y="130" width="60" height="10" as="geometry" />
        </mxCell>
        <mxCell id="QXbhTZh7FSRHMu3yAL8Z-48" value="Uporządkowany bufor" style="rounded=0;whiteSpace=wrap;html=1;" parent="1" vertex="1">
          <mxGeometry x="303" y="170" width="87" height="52.5" as="geometry" />
        </mxCell>
        <mxCell id="QXbhTZh7FSRHMu3yAL8Z-50" value="Separacja głośnego fragmentu" style="rounded=0;whiteSpace=wrap;html=1;" parent="1" vertex="1">
          <mxGeometry x="130" y="167.5" width="87" height="52.5" as="geometry" />
        </mxCell>
        <mxCell id="QXbhTZh7FSRHMu3yAL8Z-51" style="edgeStyle=orthogonalEdgeStyle;rounded=0;orthogonalLoop=1;jettySize=auto;html=1;exitX=0;exitY=0.25;exitDx=0;exitDy=0;shape=flexArrow;" parent="1" edge="1">
          <mxGeometry relative="1" as="geometry">
            <mxPoint x="310" y="130" as="sourcePoint" />
            <mxPoint x="220" y="130" as="targetPoint" />
          </mxGeometry>
        </mxCell>
        <mxCell id="QXbhTZh7FSRHMu3yAL8Z-52" value="Fragment do analizy" style="edgeStyle=orthogonalEdgeStyle;rounded=0;orthogonalLoop=1;jettySize=auto;html=1;exitX=0;exitY=0.25;exitDx=0;exitDy=0;shape=flexArrow;" parent="1" edge="1">
          <mxGeometry y="28" relative="1" as="geometry">
            <mxPoint x="110" y="134.87" as="sourcePoint" />
            <mxPoint x="20" y="134.87" as="targetPoint" />
            <mxPoint as="offset" />
          </mxGeometry>
        </mxCell>
        <mxCell id="QXbhTZh7FSRHMu3yAL8Z-55" value="" style="endArrow=none;html=1;rounded=0;" parent="1" edge="1">
          <mxGeometry width="50" height="50" relative="1" as="geometry">
            <mxPoint x="110" y="122.5" as="sourcePoint" />
            <mxPoint x="220" y="122.5" as="targetPoint" />
            <Array as="points">
              <mxPoint x="130" y="122.5" />
              <mxPoint x="140" y="132.5" />
              <mxPoint x="150" y="112.5" />
              <mxPoint x="160" y="142.5" />
              <mxPoint x="170" y="92.5" />
              <mxPoint x="180" y="152.5" />
              <mxPoint x="190" y="102.5" />
              <mxPoint x="200" y="142.5" />
              <mxPoint x="210" y="122.5" />
            </Array>
          </mxGeometry>
        </mxCell>
        <mxCell id="QXbhTZh7FSRHMu3yAL8Z-57" value="" style="endArrow=none;html=1;rounded=0;fillColor=#a20025;strokeColor=#6F0000;" parent="1" edge="1">
          <mxGeometry width="50" height="50" relative="1" as="geometry">
            <mxPoint x="170" y="87.5" as="sourcePoint" />
            <mxPoint x="171" y="152.5" as="targetPoint" />
          </mxGeometry>
        </mxCell>
        <mxCell id="QXbhTZh7FSRHMu3yAL8Z-58" value="" style="endArrow=none;html=1;rounded=0;fillColor=#a20025;strokeColor=#6F0000;" parent="1" edge="1">
          <mxGeometry width="50" height="50" relative="1" as="geometry">
            <mxPoint x="190" y="87.5" as="sourcePoint" />
            <mxPoint x="191" y="152.5" as="targetPoint" />
          </mxGeometry>
        </mxCell>
      </root>
    </mxGraphModel>
  </diagram>
</mxfile>
